<svg width="586" height="146" viewBox="0 0 586 146" fill="none" xmlns="http://www.w3.org/2000/svg">
<path d="M52.48 107L31.456 68.84H25.552V107H0.928V5.912H42.256C50.224 5.912 56.992 7.304 62.56 10.088C68.224 12.872 72.448 16.712 75.232 21.608C78.016 26.408 79.408 31.784 79.408 37.736C79.408 44.456 77.488 50.456 73.648 55.736C69.904 61.016 64.336 64.76 56.944 66.968L80.272 107H52.48ZM25.552 51.416H40.816C45.328 51.416 48.688 50.312 50.896 48.104C53.2 45.896 54.352 42.776 54.352 38.744C54.352 34.904 53.2 31.88 50.896 29.672C48.688 27.464 45.328 26.36 40.816 26.36H25.552V51.416ZM170.609 65.528C170.609 67.832 170.466 70.232 170.178 72.728H114.45C114.834 77.72 116.418 81.56 119.202 84.248C122.082 86.84 125.586 88.136 129.714 88.136C135.858 88.136 140.13 85.544 142.53 80.36H168.738C167.394 85.64 164.946 90.392 161.394 94.616C157.938 98.84 153.57 102.152 148.29 104.552C143.01 106.952 137.106 108.152 130.578 108.152C122.706 108.152 115.698 106.472 109.554 103.112C103.41 99.752 98.6095 94.952 95.1535 88.712C91.6975 82.472 89.9695 75.176 89.9695 66.824C89.9695 58.472 91.6495 51.176 95.0095 44.936C98.4655 38.696 103.266 33.896 109.41 30.536C115.554 27.176 122.61 25.496 130.578 25.496C138.354 25.496 145.266 27.128 151.314 30.392C157.362 33.656 162.066 38.312 165.426 44.36C168.882 50.408 170.609 57.464 170.609 65.528ZM145.41 59.048C145.41 54.824 143.97 51.464 141.09 48.968C138.21 46.472 134.61 45.224 130.29 45.224C126.162 45.224 122.658 46.424 119.778 48.824C116.994 51.224 115.266 54.632 114.594 59.048H145.41ZM208.224 38.024C210.624 34.28 213.936 31.256 218.16 28.952C222.384 26.648 227.328 25.496 232.992 25.496C239.616 25.496 245.616 27.176 250.992 30.536C256.368 33.896 260.592 38.696 263.664 44.936C266.832 51.176 268.416 58.424 268.416 66.68C268.416 74.936 266.832 82.232 263.664 88.568C260.592 94.808 256.368 99.656 250.992 103.112C245.616 106.472 239.616 108.152 232.992 108.152C227.424 108.152 222.48 107 218.16 104.696C213.936 102.392 210.624 99.416 208.224 95.768V145.304H183.6V26.648H208.224V38.024ZM243.36 66.68C243.36 60.536 241.632 55.736 238.176 52.28C234.816 48.728 230.64 46.952 225.648 46.952C220.752 46.952 216.576 48.728 213.12 52.28C209.76 55.832 208.08 60.68 208.08 66.824C208.08 72.968 209.76 77.816 213.12 81.368C216.576 84.92 220.752 86.696 225.648 86.696C230.544 86.696 234.72 84.92 238.176 81.368C241.632 77.72 243.36 72.824 243.36 66.68ZM305.958 0.439999V107H281.334V0.439999H305.958ZM399.547 65.528C399.547 67.832 399.403 70.232 399.115 72.728H343.387C343.771 77.72 345.355 81.56 348.139 84.248C351.019 86.84 354.523 88.136 358.651 88.136C364.795 88.136 369.067 85.544 371.467 80.36H397.675C396.331 85.64 393.883 90.392 390.331 94.616C386.875 98.84 382.507 102.152 377.227 104.552C371.947 106.952 366.043 108.152 359.515 108.152C351.643 108.152 344.635 106.472 338.491 103.112C332.347 99.752 327.547 94.952 324.091 88.712C320.635 82.472 318.907 75.176 318.907 66.824C318.907 58.472 320.587 51.176 323.947 44.936C327.403 38.696 332.203 33.896 338.347 30.536C344.491 27.176 351.547 25.496 359.515 25.496C367.291 25.496 374.203 27.128 380.251 30.392C386.299 33.656 391.003 38.312 394.363 44.36C397.819 50.408 399.547 57.464 399.547 65.528ZM374.347 59.048C374.347 54.824 372.907 51.464 370.027 48.968C367.147 46.472 363.547 45.224 359.227 45.224C355.099 45.224 351.595 46.424 348.715 48.824C345.931 51.224 344.203 54.632 343.531 59.048H374.347ZM457.321 86.12V107H444.793C435.865 107 428.905 104.84 423.913 100.52C418.921 96.104 416.425 88.952 416.425 79.064V47.096H406.633V26.648H416.425V7.064H441.049V26.648H457.177V47.096H441.049V79.352C441.049 81.752 441.625 83.48 442.777 84.536C443.929 85.592 445.849 86.12 448.537 86.12H457.321ZM546.781 65.528C546.781 67.832 546.637 70.232 546.349 72.728H490.621C491.005 77.72 492.589 81.56 495.373 84.248C498.253 86.84 501.757 88.136 505.885 88.136C512.029 88.136 516.301 85.544 518.701 80.36H544.909C543.565 85.64 541.117 90.392 537.565 94.616C534.109 98.84 529.741 102.152 524.461 104.552C519.181 106.952 513.277 108.152 506.749 108.152C498.877 108.152 491.869 106.472 485.725 103.112C479.581 99.752 474.781 94.952 471.325 88.712C467.869 82.472 466.141 75.176 466.141 66.824C466.141 58.472 467.821 51.176 471.181 44.936C474.637 38.696 479.437 33.896 485.581 30.536C491.725 27.176 498.781 25.496 506.749 25.496C514.525 25.496 521.437 27.128 527.485 30.392C533.533 33.656 538.237 38.312 541.597 44.36C545.053 50.408 546.781 57.464 546.781 65.528ZM521.581 59.048C521.581 54.824 520.141 51.464 517.261 48.968C514.381 46.472 510.781 45.224 506.461 45.224C502.333 45.224 498.829 46.424 495.949 48.824C493.165 51.224 491.437 54.632 490.765 59.048H521.581ZM571.292 108.152C566.972 108.152 563.42 106.904 560.636 104.408C557.948 101.816 556.604 98.648 556.604 94.904C556.604 91.064 557.948 87.848 560.636 85.256C563.42 82.664 566.972 81.368 571.292 81.368C575.516 81.368 578.972 82.664 581.66 85.256C584.444 87.848 585.836 91.064 585.836 94.904C585.836 98.648 584.444 101.816 581.66 104.408C578.972 106.904 575.516 108.152 571.292 108.152Z" fill="#E0FBFC"/>
</svg>
